<svg xmlns="http://www.w3.org/2000/svg" xmlns:xlink="http://www.w3.org/1999/xlink" viewBox="128.97265625 12.198999404907227 128.29734802246094 133.98824310302734" width="191.5053814442652" height="200"><path d="M 159.398,136.906 C 159.398,133.699 159.398,133.699 159.398,130.492" stroke-width="5.512" stroke="black" fill="none" stroke-linecap="round"></path><path d="M 159.398,130.492 C 159.398,127.350 159.398,127.350 159.398,124.207" stroke-width="4.447" stroke="black" fill="none" stroke-linecap="round"></path><path d="M 159.398,124.207 C 159.398,120.570 159.398,120.570 159.398,116.934" stroke-width="4.024" stroke="black" fill="none" stroke-linecap="round"></path><path d="M 159.398,116.934 C 159.398,112.758 159.398,112.758 159.398,108.582" stroke-width="3.844" stroke="black" fill="none" stroke-linecap="round"></path><path d="M 159.398,108.582 C 159.289,104.062 159.398,104.064 159.398,99.547" stroke-width="3.723" stroke="black" fill="none" stroke-linecap="round"></path><path d="M 159.398,99.547 C 159.341,95.053 159.506,95.079 159.832,90.617" stroke-width="3.642" stroke="black" fill="none" stroke-linecap="round"></path><path d="M 159.832,90.617 C 160.520,85.681 160.378,85.678 161.473,80.797" stroke-width="3.575" stroke="black" fill="none" stroke-linecap="round"></path><path d="M 161.473,80.797 C 162.447,76.338 162.346,76.320 163.484,71.895" stroke-width="3.580" stroke="black" fill="none" stroke-linecap="round"></path><path d="M 163.484,71.895 C 164.358,67.980 164.396,67.991 165.371,64.102" stroke-width="3.792" stroke="black" fill="none" stroke-linecap="round"></path><path d="M 165.371,64.102 C 166.424,60.339 166.358,60.322 167.484,56.578" stroke-width="3.783" stroke="black" fill="none" stroke-linecap="round"></path><path d="M 167.484,56.578 C 168.397,53.442 168.371,53.434 169.266,50.293" stroke-width="3.975" stroke="black" fill="none" stroke-linecap="round"></path><path d="M 169.266,50.293 C 169.812,47.522 170.012,47.586 170.715,44.867" stroke-width="4.105" stroke="black" fill="none" stroke-linecap="round"></path><path d="M 170.715,44.867 C 171.835,40.440 172.146,40.661 173.934,36.570" stroke-width="4.346" stroke="black" fill="none" stroke-linecap="round"></path><path d="M 173.934,36.570 C 175.681,33.643 175.501,33.680 178.047,31.348" stroke-width="4.576" stroke="black" fill="none" stroke-linecap="round"></path><path d="M 178.047,31.348 C 180.762,29.167 180.521,28.947 183.613,27.180" stroke-width="4.625" stroke="black" fill="none" stroke-linecap="round"></path><path d="M 183.613,27.180 C 186.837,24.766 186.895,24.892 190.313,22.797" stroke-width="4.668" stroke="black" fill="none" stroke-linecap="round"></path><path d="M 190.313,22.797 C 193.844,20.489 193.891,20.770 197.723,19.188" stroke-width="4.411" stroke="black" fill="none" stroke-linecap="round"></path><path d="M 197.723,19.188 C 202.465,17.093 202.182,17.691 206.988,17.199" stroke-width="4.629" stroke="black" fill="none" stroke-linecap="round"></path><path d="M 206.988,17.199 C 210.295,17.641 209.781,17.265 212.355,19.531" stroke-width="4.997" stroke="black" fill="none" stroke-linecap="round"></path><path d="M 212.355,19.531 C 214.459,22.468 214.885,21.852 216.168,25.621" stroke-width="4.942" stroke="black" fill="none" stroke-linecap="round"></path><path d="M 216.168,25.621 C 217.951,29.464 218.183,29.339 219.805,33.273" stroke-width="4.606" stroke="black" fill="none" stroke-linecap="round"></path><path d="M 219.805,33.273 C 222.017,37.378 221.842,37.459 223.949,41.609" stroke-width="4.451" stroke="black" fill="none" stroke-linecap="round"></path><path d="M 223.949,41.609 C 225.804,45.722 225.819,45.704 227.410,49.926" stroke-width="4.448" stroke="black" fill="none" stroke-linecap="round"></path><path d="M 227.410,49.926 C 228.320,52.364 228.336,52.348 229.012,54.863" stroke-width="4.305" stroke="black" fill="none" stroke-linecap="round"></path><path d="M 229.012,54.863 C 229.740,57.674 229.785,57.657 230.340,60.512" stroke-width="4.269" stroke="black" fill="none" stroke-linecap="round"></path><path d="M 230.340,60.512 C 230.964,63.428 230.955,63.426 231.441,66.367" stroke-width="4.148" stroke="black" fill="none" stroke-linecap="round"></path><path d="M 231.441,66.367 C 231.889,69.279 231.913,69.273 232.238,72.203" stroke-width="4.169" stroke="black" fill="none" stroke-linecap="round"></path><path d="M 232.238,72.203 C 232.622,74.819 232.551,74.820 232.766,77.449" stroke-width="4.212" stroke="black" fill="none" stroke-linecap="round"></path><path d="M 232.766,77.449 C 232.917,81.597 232.991,81.590 232.977,85.746" stroke-width="4.424" stroke="black" fill="none" stroke-linecap="round"></path><path d="M 232.977,85.746 C 232.977,88.885 233.022,88.884 232.977,92.023" stroke-width="4.631" stroke="black" fill="none" stroke-linecap="round"></path><path d="M 232.977,92.023 C 232.977,95.131 232.977,95.131 232.977,98.238" stroke-width="4.702" stroke="black" fill="none" stroke-linecap="round"></path><path d="M 232.977,98.238 C 232.977,101.215 232.977,101.215 232.977,104.191" stroke-width="4.761" stroke="black" fill="none" stroke-linecap="round"></path><path d="M 232.977,104.191 C 232.977,106.955 232.977,106.955 232.977,109.719" stroke-width="4.801" stroke="black" fill="none" stroke-linecap="round"></path><path d="M 232.977,109.719 C 232.977,113.473 232.977,113.473 232.977,117.227" stroke-width="4.646" stroke="black" fill="none" stroke-linecap="round"></path><path d="M 232.977,117.227 C 232.977,120.734 232.977,120.734 232.977,124.242" stroke-width="4.658" stroke="black" fill="none" stroke-linecap="round"></path><path d="M 232.977,124.242 C 232.561,127.240 232.977,127.178 232.977,130.113" stroke-width="4.908" stroke="black" fill="none" stroke-linecap="round"></path><path d="M 232.977,130.113 C 233.010,133.268 233.358,132.756 234.570,135.273" stroke-width="5.200" stroke="black" fill="none" stroke-linecap="round"></path><path d="M 234.570,135.273 C 236.984,136.977 236.274,137.463 239.504,138.504" stroke-width="5.278" stroke="black" fill="none" stroke-linecap="round"></path><path d="M 239.504,138.504 C 241.608,140.641 241.687,139.827 243.977,140.973" stroke-width="5.242" stroke="black" fill="none" stroke-linecap="round"></path><path d="M 243.977,140.973 C 247.379,141.376 246.434,141.317 249.156,139.855" stroke-width="5.358" stroke="black" fill="none" stroke-linecap="round"></path><path d="M 249.156,139.855 C 250.512,137.428 250.978,138.296 251.176,134.813" stroke-width="5.156" stroke="black" fill="none" stroke-linecap="round"></path><path d="M 251.176,134.813 C 252.330,131.187 252.069,131.293 252.270,127.586" stroke-width="5.169" stroke="black" fill="none" stroke-linecap="round"></path><path d="M 252.270,127.586 C 251.649,124.137 252.211,124.134 250.938,120.707" stroke-width="5.002" stroke="black" fill="none" stroke-linecap="round"></path><path d="M 250.938,120.707 C 250.405,117.454 250.272,117.495 249.516,114.301" stroke-width="4.781" stroke="black" fill="none" stroke-linecap="round"></path><path d="M 249.516,114.301 C 248.712,110.989 248.604,111.069 247.336,107.938" stroke-width="4.705" stroke="black" fill="none" stroke-linecap="round"></path><path d="M 247.336,107.938 C 246.017,104.933 246.019,105.018 244.129,102.359" stroke-width="4.897" stroke="black" fill="none" stroke-linecap="round"></path><path d="M 244.129,102.359 C 242.630,100.177 242.640,100.331 240.582,98.734" stroke-width="5.042" stroke="black" fill="none" stroke-linecap="round"></path><path d="M 240.582,98.734 C 237.593,96.782 237.742,96.734 234.352,95.473" stroke-width="5.076" stroke="black" fill="none" stroke-linecap="round"></path><path d="M 234.352,95.473 C 231.527,94.621 231.634,94.375 228.664,93.922" stroke-width="4.875" stroke="black" fill="none" stroke-linecap="round"></path><path d="M 228.664,93.922 C 224.858,93.068 224.876,92.996 221.051,92.223" stroke-width="4.643" stroke="black" fill="none" stroke-linecap="round"></path><path d="M 221.051,92.223 C 217.230,91.235 217.206,91.369 213.359,90.523" stroke-width="4.571" stroke="black" fill="none" stroke-linecap="round"></path><path d="M 213.359,90.523 C 210.232,89.972 210.246,89.951 207.082,89.656" stroke-width="4.674" stroke="black" fill="none" stroke-linecap="round"></path><path d="M 207.082,89.656 C 204.237,89.398 204.246,89.372 201.387,89.324" stroke-width="4.773" stroke="black" fill="none" stroke-linecap="round"></path><path d="M 201.387,89.324 C 197.848,89.324 197.850,89.232 194.309,89.324" stroke-width="4.673" stroke="black" fill="none" stroke-linecap="round"></path><path d="M 194.309,89.324 C 189.426,89.324 189.426,89.324 184.543,89.324" stroke-width="4.457" stroke="black" fill="none" stroke-linecap="round"></path><path d="M 184.543,89.324 C 181.904,89.324 181.904,89.324 179.266,89.324" stroke-width="4.295" stroke="black" fill="none" stroke-linecap="round"></path><path d="M 179.266,89.324 C 175.471,89.324 175.471,89.324 171.676,89.324" stroke-width="4.486" stroke="black" fill="none" stroke-linecap="round"></path><path d="M 171.676,89.324 C 168.139,89.118 168.152,89.324 164.629,89.324" stroke-width="4.788" stroke="black" fill="none" stroke-linecap="round"></path><path d="M 164.629,89.324 C 161.801,89.474 161.836,89.489 159.070,90.066" stroke-width="4.980" stroke="black" fill="none" stroke-linecap="round"></path><path d="M 159.070,90.066 C 156.520,91.084 156.423,90.640 153.871,91.656" stroke-width="5.038" stroke="black" fill="none" stroke-linecap="round"></path><path d="M 153.871,91.656 C 150.882,92.264 150.918,92.295 147.867,92.488" stroke-width="5.182" stroke="black" fill="none" stroke-linecap="round"></path><path d="M 147.867,92.488 C 145.145,93.047 145.279,92.680 142.664,92.488" stroke-width="5.259" stroke="black" fill="none" stroke-linecap="round"></path><path d="M 142.664,92.488 C 139.232,92.111 139.971,91.881 137.520,90.156" stroke-width="5.359" stroke="black" fill="none" stroke-linecap="round"></path><path d="M 137.520,90.156 C 135.478,87.170 135.609,87.976 135.418,84.219" stroke-width="5.383" stroke="black" fill="none" stroke-linecap="round"></path><path d="M 135.418,84.219 C 136.421,79.280 135.369,81.813 137.301,79.441" stroke-width="5.422" stroke="black" fill="none" stroke-linecap="round"></path><path d="M 137.301,79.441 C 138.606,82.099 138.288,79.622 139.152,84.902" stroke-width="5.510" stroke="black" fill="none" stroke-linecap="round"></path><path d="M 139.152,84.902 C 139.304,87.707 139.684,87.634 139.457,90.512" stroke-width="5.282" stroke="black" fill="none" stroke-linecap="round"></path><path d="M 139.457,90.512 C 139.684,93.273 139.608,93.275 139.762,96.039" stroke-width="5.221" stroke="black" fill="none" stroke-linecap="round"></path><path d="M 139.762,96.039 C 139.762,98.680 139.836,98.678 139.762,101.320" stroke-width="5.216" stroke="black" fill="none" stroke-linecap="round"></path><path d="M 139.762,101.320 C 139.897,104.028 139.762,104.021 139.762,106.723" stroke-width="5.259" stroke="black" fill="none" stroke-linecap="round"></path><path d="M 139.762,106.723 C 139.553,109.457 139.624,109.456 139.215,112.176" stroke-width="5.360" stroke="black" fill="none" stroke-linecap="round"></path><path d="M 139.215,112.176 C 138.719,114.888 138.875,114.906 138.406,117.621" stroke-width="5.389" stroke="black" fill="none" stroke-linecap="round"></path><path d="M 138.406,117.621 C 138.228,120.492 138.080,120.476 137.938,123.352" stroke-width="5.241" stroke="black" fill="none" stroke-linecap="round"></path><path d="M 137.938,123.352 C 137.746,125.958 137.675,125.941 137.301,128.520" stroke-width="5.138" stroke="black" fill="none" stroke-linecap="round"></path><path d="M 137.301,128.520 C 136.613,130.986 136.865,131.030 136.176,133.496" stroke-width="5.346" stroke="black" fill="none" stroke-linecap="round"></path><circle r="1.5" cx="135.47265625" cy="62.50390625" fill="black"></circle><circle r="1.5" cx="138.140625" cy="63.65625" fill="black"></circle><circle r="1.5" cx="138.140625" cy="63.65625" fill="black"></circle><circle r="1.5" cx="138.140625" cy="63.65625" fill="black"></circle><path d="M 139.746,62.426 C 135.450,60.939 137.232,62.219 134.719,62.012" stroke-width="5.599" stroke="black" fill="none" stroke-linecap="round"></path><path d="M 134.719,62.012 C 135.507,66.662 133.966,63.117 136.777,66.781" stroke-width="5.485" stroke="black" fill="none" stroke-linecap="round"></path></svg>